<svg xmlns="http://www.w3.org/2000/svg" version="1.1" xmlns:xlink="http://www.w3.org/1999/xlink" viewBox="0 0 200 200"><rect width="200" height="200" fill="url('#gradient')"></rect><defs><linearGradient id="gradient" gradientTransform="rotate(45 0.5 0.5)"><stop offset="0%" stop-color="#fff0db"></stop><stop offset="100%" stop-color="#d71527"></stop></linearGradient></defs><g><g fill="#000000" transform="matrix(3.878787878787879,0,0,3.878787878787879,8.635464166149944,127.19202106649226)" stroke="#ffffff" stroke-width="0.2"><path d="M6.74-4.46L6.74-14.22L10.16-14.22L10.16-4.46Q10.16-3.11 9.53-2.04Q8.90-0.98 7.77-0.39Q6.64 0.20 5.25 0.20L5.25 0.20Q2.93 0.20 1.64-0.98Q0.35-2.15 0.35-4.30L0.35-4.30L3.79-4.30Q3.79-3.32 4.13-2.88Q4.46-2.44 5.25-2.44L5.25-2.44Q5.97-2.44 6.35-2.97Q6.74-3.51 6.74-4.46L6.74-4.46ZM21.41 0L18.12 0Q17.94-0.32 17.80-0.95L17.80-0.95Q16.89 0.20 15.26 0.20L15.26 0.20Q13.77 0.20 12.72-0.71Q11.68-1.61 11.68-2.98L11.68-2.98Q11.68-4.70 12.95-5.58Q14.22-6.46 16.64-6.46L16.64-6.46L17.66-6.46L17.66-7.01Q17.66-8.47 16.40-8.47L16.40-8.47Q15.22-8.47 15.22-7.31L15.22-7.31L11.93-7.31Q11.93-8.85 13.24-9.80Q14.54-10.76 16.56-10.76Q18.58-10.76 19.76-9.78Q20.93-8.79 20.96-7.07L20.96-7.07L20.96-2.39Q20.98-0.94 21.41-0.17L21.41-0.17L21.41 0ZM16.05-2.15L16.05-2.15Q16.67-2.15 17.08-2.41Q17.48-2.68 17.66-3.01L17.66-3.01L17.66-4.70L16.70-4.70Q14.98-4.70 14.98-3.15L14.98-3.15Q14.98-2.71 15.28-2.43Q15.59-2.15 16.05-2.15ZM30.24-10.57L31.90-4.34L32.97-10.57L36.12-10.57L33.63 0L30.85 0L29.10-6.27L27.34 0L24.56 0L22.07-10.57L25.22-10.57L26.27-4.19L27.95-10.57L30.24-10.57ZM37.24-10.57L40.32-10.57L40.43-9.33Q41.52-10.76 43.45-10.76L43.45-10.76Q45.10-10.76 45.91-9.78Q46.73-8.79 46.76-6.81L46.76-6.81L46.76 0L43.46 0L43.46-6.67Q43.46-7.47 43.13-7.85Q42.81-8.22 41.96-8.22L41.96-8.22Q41.00-8.22 40.53-7.46L40.53-7.46L40.53 0L37.24 0L37.24-10.57Z"></path></g></g></svg>